<?xml version="1.0" standalone="no"?>
<!DOCTYPE svg PUBLIC "-//W3C//DTD SVG 20010904//EN"
 "http://www.w3.org/TR/2001/REC-SVG-20010904/DTD/svg10.dtd">
<svg version="1.0" xmlns="http://www.w3.org/2000/svg"
 width="260.000000pt" height="260.000000pt" viewBox="0 0 260.000000 260.000000"
 preserveAspectRatio="xMidYMid meet">
<metadata>
Created by potrace 1.11, written by Peter Selinger 2001-2013
</metadata>
<g transform="translate(0.000000,260.000000) scale(0.100000,-0.100000)"
fill="#000000" stroke="none">
<path d="M0 1300 l0 -1300 1300 0 1300 0 0 1300 0 1300 -1300 0 -1300 0 0
-1300z m1867 640 c65 -29 96 -61 129 -133 25 -56 28 -76 32 -194 l4 -133 -120
0 -120 0 -3 113 c-3 84 -8 119 -21 139 -30 46 -92 42 -125 -9 -16 -25 -18 -60
-21 -393 -4 -392 2 -457 41 -485 32 -23 70 -18 98 11 22 24 24 35 28 150 l3
124 120 0 120 0 -4 -132 c-6 -158 -26 -224 -89 -287 -56 -56 -120 -76 -239
-75 -144 1 -225 44 -279 150 -46 89 -53 162 -49 554 3 323 6 371 22 415 58
159 156 220 338 211 59 -3 102 -11 135 -26z m-807 6 c0 -9 200 -1252 205
-1273 5 -23 4 -23 -109 -23 l-114 0 -6 27 c-3 16 -10 66 -16 113 -19 143 -8
130 -104 130 l-84 0 -17 -135 -18 -135 -119 0 c-118 0 -118 0 -113 23 6 30
205 1256 205 1268 0 5 64 9 145 9 80 0 145 -2 145 -4z"/>
<path d="M886 1341 c-15 -127 -25 -235 -21 -241 7 -11 102 -14 108 -2 5 8 -49
462 -56 468 -2 2 -16 -99 -31 -225z"/>
</g>
</svg>
